<?xml version="1.0" encoding="utf-8"?>
<!-- Generator: Adobe Illustrator 24.1.0, SVG Export Plug-In . SVG Version: 6.00 Build 0)  -->
<svg version="1.1" id="Capa_1" xmlns="http://www.w3.org/2000/svg" xmlns:xlink="http://www.w3.org/1999/xlink" x="0px" y="0px"
	 viewBox="0 0 171 44" style="enable-background:new 0 0 171 44;" xml:space="preserve">
<style type="text/css">
	.st0{fill:#EE7516;}
</style>
<g>
	<path class="st0" d="M22.95,22.22v12.15h-5.7V22.35c0-2.92-1.87-4.96-4.53-4.96s-4.57,2.09-4.57,5.01v11.97H2.58V12.6h5.57v2.18
		c1.57-1.57,3.66-2.53,5.83-2.53C19.34,12.25,22.95,16.56,22.95,22.22z"/>
	<path class="st0" d="M21.04,42.38l1.52-4.96c0,0,0.74,0.52,2.09,0.52c1.44,0,2.13-1.52,2.13-3.27V9.06h5.57v25.61
		c0,4.88-2.66,8.88-7.71,8.88C22.52,43.55,21.08,42.42,21.04,42.38z"/>
	<path class="st0" d="M58.13,12.6v21.77h-5.57v-1.44c-1.74,1.13-3.83,1.79-6.05,1.79c-6.23,0-11.23-5.05-11.23-11.23
		c0-6.18,5.01-11.23,11.23-11.23c2.22,0,4.31,0.65,6.05,1.79V12.6H58.13z M52.34,23.48c0-3.48-2.39-6.01-5.66-6.01
		c-3.27,0-5.66,2.53-5.66,6.01c0,3.48,2.39,6.01,5.66,6.01C49.94,29.49,52.34,26.96,52.34,23.48z"/>
	<path class="st0" d="M96.92,22.22v12.15h-5.7V22.35c0-2.92-1.87-4.96-4.53-4.96c-2.66,0-4.57,2.09-4.57,5.01v11.97h-5.66V22.35
		c0-2.92-1.92-4.96-4.57-4.96c-2.66,0-4.57,2.09-4.57,5.01v11.97h-5.57V12.6h5.57v2.18c1.57-1.57,3.7-2.53,5.88-2.53
		c3,0,5.44,1.35,7.01,3.53c1.57-2.13,4.22-3.53,7.79-3.53C93.31,12.25,96.92,16.56,96.92,22.22z"/>
	<path class="st0" d="M123.35,23.48c0,6.18-5.01,11.23-11.23,11.23c-2.26,0-4.35-0.65-6.1-1.83v1.48h-5.57V1.93h5.57v12.15
		c1.74-1.18,3.83-1.83,6.1-1.83C118.34,12.25,123.35,17.3,123.35,23.48z M117.6,23.48c0-3.48-2.39-6.01-5.66-6.01
		c-3.31,0-5.66,2.53-5.66,6.01c0,3.48,2.35,6.01,5.66,6.01C115.21,29.49,117.6,26.96,117.6,23.48z"/>
	<path class="st0" d="M140.02,12.86l-1.52,5.83c-1-0.78-2.05-1.31-2.79-1.31c-2.66,0-4.57,2.09-4.57,5.01v11.97h-5.57V12.6h5.57
		v2.18c1.57-1.57,3.7-2.53,5.88-2.53C138.11,12.25,139.11,12.47,140.02,12.86z"/>
	<path class="st0" d="M161.84,27.22c-0.39,1-3.66,7.23-11.23,7.23c-4.35,0-8.75-2.79-10.45-7.18c-0.52-1.26-0.78-2.66-0.78-4.05
		c0-6.23,5.01-11.23,11.23-11.23c6.05,0,10.97,4.79,11.19,10.8c0,0.22,0.04,0.39,0,0.57l-16.02,2.92c0.78,1.79,2.57,3.13,4.83,3.13
		c3.74,0,6.27-2.74,6.57-3.66L161.84,27.22z M144.99,22.04l10.49-1.87c-1.04-2.09-3.31-3.44-5.57-3.22
		c-2.31,0.17-4.31,2.05-4.79,4.4L144.99,22.04z"/>
	<path class="st0" d="M163.17,33.97c0-1.65,1.39-3,3.05-3c1.7,0,3.05,1.35,3.05,3c0,1.7-1.35,3.05-3.05,3.05
		C164.56,37.02,163.17,35.67,163.17,33.97z"/>
</g>
</svg>
